<svg width="66" height="58" viewBox="0 0 66 58" fill="none" xmlns="http://www.w3.org/2000/svg">
<g clip-path="url(#clip0_163_68)">
<path d="M40.482 0C41.2134 0.609199 41.9705 1.19061 42.672 1.83187C45.2234 4.15965 46.8979 7.00258 47.6015 10.3949C48.0442 12.526 48.1511 14.6785 47.9137 16.8417C47.6079 19.644 46.7204 22.2475 45.1934 24.618C43.5681 27.1403 41.438 29.0834 38.5851 30.135C33.5935 31.9755 28.0759 30.1564 25.146 25.7167C24.8744 25.3042 24.6284 24.8745 24.3953 24.4406C24.3162 24.2931 24.2264 24.2247 24.0724 24.197C22.4513 23.8998 20.8324 23.5984 19.2134 23.2992C18.5654 23.1795 17.9174 23.0598 17.2694 22.9422C17.1646 22.923 17.0577 22.9102 16.8995 22.8866C16.9893 23.1538 17.0513 23.3804 17.139 23.5963C19.3204 28.9957 23.1464 32.6082 28.7688 34.2413C31.1662 34.9381 33.6256 35.1305 36.115 34.9702C38.9743 34.7842 41.6604 34.0104 44.1605 32.606C47.1695 30.9152 49.5177 28.5426 51.3142 25.6163C51.8253 24.7826 52.2466 23.8956 52.7107 23.0341C52.8005 22.8653 52.8882 22.6921 53.0015 22.5382C53.0464 22.4784 53.1683 22.4185 53.2282 22.4399C53.286 22.4591 53.348 22.5874 53.3394 22.6579C53.2967 22.9935 53.2689 23.3355 53.1662 23.654C51.1324 29.9555 47.1438 34.4101 40.805 36.599C37.828 37.6271 34.7463 37.8922 31.6175 37.6506C28.2598 37.3898 25.1032 36.4579 22.2268 34.6944C17.3614 31.7104 14.3181 27.3883 12.9451 21.8734C12.7569 21.121 12.6543 20.3472 12.5131 19.582C12.5046 19.5371 12.5025 19.4901 12.5003 19.4452C12.4661 19.0091 12.5966 18.8852 13.02 18.9749C13.7086 19.1203 14.3973 19.2721 15.0859 19.4217C18.6895 20.204 22.2909 20.9885 25.8945 21.7666C26.0998 21.8115 26.2153 21.8948 26.303 22.1C27.1798 24.1585 28.4245 25.9519 30.3877 27.0997C33.4374 28.8824 36.4999 28.7007 39.4512 26.8496C41.3888 25.6334 42.6741 23.8336 43.5873 21.7666C44.8641 18.8745 45.279 15.8456 44.8726 12.7205C44.4043 9.11447 42.6142 6.28009 39.7292 4.09766C39.3913 3.84116 39.154 3.8091 38.7733 4.00147C35.3365 5.73716 31.8869 7.45146 28.4395 9.17218C28.3347 9.22562 28.2299 9.27906 28.108 9.34319C28.5721 9.67664 29.0254 9.97804 29.451 10.3136C32.1436 12.4405 33.7347 15.2065 34.1988 18.6009C34.4661 20.5524 34.2865 22.4741 33.6107 24.3338C33.5144 24.5967 33.3647 24.8425 33.2171 25.084C33.1744 25.1524 33.0567 25.1738 32.9733 25.2166C32.9455 25.1332 32.8921 25.0498 32.8942 24.9686C32.9092 24.5945 32.9584 24.2205 32.9605 23.8443C33.0076 18.7462 30.8176 14.8645 26.5425 12.1412C24.6947 10.9634 22.6545 10.2367 20.5351 9.71726C20.4175 9.68733 20.317 9.58687 20.2079 9.51847C20.2999 9.42228 20.3747 9.28547 20.4881 9.23417C26.8398 6.29292 33.1958 3.36021 39.5496 0.423233C39.8383 0.290705 40.1313 0.143215 40.4264 0C40.4457 0 40.4628 0 40.482 0Z" fill="white"/>
<path d="M0 41.2803C0.658695 41.276 1.31739 41.2674 1.97822 41.2674C3.47954 41.2674 4.98299 41.2418 6.4843 41.2824C9.13405 41.3572 11.2898 43.1805 11.8437 45.767C12.5174 48.907 10.2782 52.0684 7.07884 52.4233C6.11004 52.5301 5.122 52.4767 4.14465 52.4959C4.02702 52.4981 3.9094 52.4959 3.7597 52.4959V57.6581H0C0 52.201 0 46.7417 0 41.2803ZM3.75328 44.8029V48.984C4.54671 48.984 5.32303 48.984 6.09935 48.984C7.24351 48.9818 7.99417 48.3384 8.18023 47.2098C8.36843 46.0577 7.63488 44.9205 6.53349 44.82C5.61816 44.7367 4.69 44.8029 3.75328 44.8029Z" fill="white"/>
<path d="M33.8845 57.6389H30.1611V41.2889C30.2039 41.2824 30.2467 41.2675 30.2895 41.2675C32.5264 41.2696 34.7634 41.2333 36.9962 41.2867C39.6309 41.3508 41.9064 43.4349 42.2379 46.0492C42.5138 48.2166 41.7824 49.9886 40.0266 51.3139C39.817 51.4721 39.5796 51.5918 39.3401 51.7414C40.48 53.7037 41.6135 55.6531 42.7662 57.6389C42.6421 57.6453 42.5651 57.6517 42.4881 57.6539C41.3247 57.6539 40.1613 57.6496 38.9958 57.6603C38.799 57.6603 38.7071 57.5855 38.6172 57.4294C37.7939 55.9823 36.9384 54.5523 36.1471 53.0881C35.8926 52.6178 35.6146 52.4212 35.0885 52.4896C34.7185 52.5387 34.3379 52.5045 33.9636 52.5088C33.9486 52.5088 33.9315 52.5238 33.8845 52.5473V57.641V57.6389ZM33.8994 49.2234C34.9217 49.2234 35.9183 49.2448 36.9128 49.2149C37.4132 49.1999 37.8024 48.9028 38.0997 48.5052C38.4975 47.9729 38.6194 47.3616 38.5574 46.7139C38.4675 45.7756 37.8046 44.7004 36.4572 44.7773C35.7087 44.8201 34.9559 44.7859 34.2053 44.7859H33.8994V49.2255V49.2234Z" fill="white"/>
<path d="M27.7958 57.6538C26.6303 57.6538 25.5032 57.6538 24.3762 57.6538C23.9356 57.6538 23.6483 57.4472 23.5143 57.034C23.2919 56.3457 23.0673 55.6617 22.8556 54.9712C22.8064 54.8088 22.7358 54.7767 22.5797 54.813C20.7469 55.2427 18.9141 55.2384 17.0813 54.8066C17.0364 54.7959 16.9915 54.7959 16.9081 54.7874C16.6065 55.7386 16.305 56.6919 16.0056 57.6389H11.9272C11.9593 57.5256 11.9807 57.4294 12.0107 57.3354C13.7985 52.0727 15.5907 46.8101 17.3722 41.5453C17.447 41.323 17.5475 41.2568 17.7764 41.2589C19.1793 41.2696 20.5822 41.2653 21.983 41.261C22.1563 41.261 22.2611 41.2888 22.3252 41.4791C24.1195 46.778 25.9202 52.077 27.7188 57.3738C27.7445 57.4508 27.7637 57.5299 27.7958 57.6496V57.6538ZM19.8851 45.6494C19.8615 45.6473 19.8401 45.6451 19.8166 45.6409C19.1836 47.6202 18.5506 49.5996 17.909 51.6089C19.2093 51.9381 20.486 51.9167 21.7884 51.611C21.149 49.606 20.516 47.6266 19.8851 45.6494Z" fill="white"/>
<path d="M53.3521 53.9428C54.4278 53.3806 55.4736 52.8356 56.5365 52.2798C56.669 52.4658 56.7952 52.6539 56.9342 52.8313C58.0378 54.2442 59.6332 54.6161 61.297 54.148C61.8039 54.0048 62.1888 53.7055 62.2594 53.1391C62.3278 52.5833 62.0712 52.1451 61.6007 51.91C61.0083 51.6129 60.3731 51.397 59.7487 51.1704C58.72 50.7942 57.6464 50.5163 56.6584 50.0546C54.9346 49.2509 54.045 47.8465 54.0557 45.9185C54.0663 43.984 54.9432 42.5519 56.6391 41.6413C59.1156 40.3117 63.5255 40.5725 65.4887 44.5569C65.4973 44.5718 65.4951 44.5911 65.5058 44.6466C64.4857 45.1874 63.4549 45.7325 62.4348 46.2712C62.191 45.9805 61.9793 45.6898 61.7269 45.4397C60.8843 44.6103 59.8577 44.4521 58.7499 44.7129C58.273 44.8262 57.8945 45.1105 57.8068 45.6363C57.7148 46.1835 57.9479 46.6004 58.3949 46.9039C59.0643 47.357 59.8321 47.5815 60.5891 47.823C61.6692 48.1672 62.7641 48.4707 63.7586 49.0393C65.5401 50.0589 66.1731 51.5637 65.9614 53.5431C65.7667 55.3643 64.7766 56.6746 63.102 57.3308C60.3817 58.3953 57.7384 58.2478 55.3303 56.4352C54.4705 55.7875 53.8119 54.9581 53.3521 53.9407V53.9428Z" fill="white"/>
<path d="M46.2778 41.2801H49.9948V57.6366H46.2778V41.2801Z" fill="white"/>
</g>
<defs>
<clipPath id="clip0_163_68">
<rect width="66" height="58" fill="white"/>
</clipPath>
</defs>
</svg>
