<?xml version="1.0" encoding="UTF-8"?>
<svg id="Calque_1" data-name="Calque 1" xmlns="http://www.w3.org/2000/svg" viewBox="0 0 250.61 82.4">
  <defs>
    <style>
      .cls-1 {
        fill: #eee9e1;
      }

      .cls-2 {
        fill: #93c1a5;
        stroke: #93c1a5;
        stroke-miterlimit: 10;
      }

      .cls-3 {
        fill: none;
        stroke: #eee9e1;
        stroke-linecap: round;
        stroke-linejoin: round;
        stroke-width: 3px;
      }
    </style>
  </defs>
  <path class="cls-2" d="m.77,43.15V13.81c0-3.78,2.52-6.42,5.94-6.42h11.58c9.6,0,15.42,6.3,15.42,15.12,0,10.02-6.96,15.66-15.42,15.66h-4.74v4.98c0,3.84-2.88,6.42-6.36,6.42s-6.42-2.58-6.42-6.42Zm12.78-16.38h3c3.18,0,5.04-.96,5.04-3.72s-1.8-3.6-4.98-3.6h-3.06v7.32Z"/>
  <path class="cls-2" d="m37.85,43.51v-14.46l-.96-6.48c-.54-3.3,1.68-6.36,6.12-6.36,3.06,0,5.58,1.56,5.82,5.58l.24,5.52.96.06c-.42-8.16,3.36-11.1,6.78-11.1s5.52,2.46,5.52,6.48c0,4.8-2.88,8.64-7.44,8.04-3.54-.48-4.92,1.68-4.92,5.16v7.5c0,3.84-3,6.06-6.24,6.06-3.06,0-5.88-2.04-5.88-6Z"/>
  <path class="cls-2" d="m63.47,32.71c0-9.78,5.58-16.68,16.32-16.68s16.32,6.9,16.32,16.68-5.64,16.8-16.32,16.8-16.32-7.02-16.32-16.8Zm21.48,0c0-3.42-1.68-5.1-5.16-5.1s-5.28,1.68-5.28,5.1,1.74,5.16,5.22,5.16,5.22-1.68,5.22-5.16Z"/>
  <path class="cls-2" d="m100.07,55.09v-25.8l-.6-6.12c-.6-4.86,2.46-6.84,5.28-6.96,2.52,0,5.76.96,6.12,5.52l.42,5.4h.54c.66-8.58,5.34-11.1,10.62-11.1,6.6.06,11.04,5.04,11.04,16.56,0,12.24-5.76,16.86-11.88,16.86-4.44,0-8.4-2.46-9.3-10.68h-.78c.66,5.1.66,9.18.66,10.98v5.34c0,3.96-2.94,6-6,6-2.76,0-6.12-1.98-6.12-6Zm21.66-22.38c0-3.48-2.04-4.56-4.68-4.56-3.36,0-4.92,1.5-4.92,4.56,0,2.88,1.68,4.5,4.98,4.5,2.64,0,4.62-1.14,4.62-4.5Z"/>
  <path class="cls-2" d="m168.41,40.45c0,6.3-7.68,9.06-14.46,9.06-11.04,0-17.22-6.42-17.22-16.68,0-11.22,7.2-16.74,16.74-16.74s15.48,5.28,15.48,13.26c0,3.24-1.74,4.92-5.28,4.92h-15.06c.3,2.52,2.52,4.02,5.88,4.02,2.82,0,4.38-.96,5.94-1.8,1.02-.54,2.04-1.02,3.48-1.02,2.7,0,4.5,2.16,4.5,4.98Zm-19.8-10.5l9-.18c-.12-2.04-1.74-3.6-4.38-3.6-2.22,0-4.2,1.14-4.62,3.78Z"/>
  <path class="cls-2" d="m203.69,40.45c0,6.3-7.68,9.06-14.46,9.06-11.04,0-17.22-6.42-17.22-16.68,0-11.22,7.2-16.74,16.74-16.74s15.48,5.28,15.48,13.26c0,3.24-1.74,4.92-5.28,4.92h-15.06c.3,2.52,2.52,4.02,5.88,4.02,2.82,0,4.38-.96,5.94-1.8,1.02-.54,2.04-1.02,3.48-1.02,2.7,0,4.5,2.16,4.5,4.98Zm-19.8-10.5l9-.18c-.12-2.04-1.74-3.6-4.38-3.6-2.22,0-4.2,1.14-4.62,3.78Z"/>
  <path class="cls-2" d="m212.63,48.79c-3.42,0-5.82-2.52-5.82-5.7,0-1.62.48-3.48,2.28-5.04l10.56-9.36h-7.32c-3.24,0-5.82-2.64-5.82-5.94s2.52-6,5.88-6h15.36c3.42,0,6.18,2.28,6.18,5.64,0,1.74-.66,4.02-2.58,5.58l-10.26,9.18h8.22c3.24,0,5.76,2.58,5.76,5.76,0,3.36-2.46,5.88-5.76,5.88h-16.68Z"/>
  <path class="cls-1" d="m.77,36.15V6.81C.77,3.03,3.29.39,6.71.39h11.58c9.6,0,15.42,6.3,15.42,15.12,0,10.02-6.96,15.66-15.42,15.66h-4.74v4.98c0,3.84-2.88,6.42-6.36,6.42s-6.42-2.58-6.42-6.42Zm12.78-16.38h3c3.18,0,5.04-.96,5.04-3.72s-1.8-3.6-4.98-3.6h-3.06v7.32Z"/>
  <path class="cls-1" d="m37.85,36.51v-14.46l-.96-6.48c-.54-3.3,1.68-6.36,6.12-6.36,3.06,0,5.58,1.56,5.82,5.58l.24,5.52.96.06c-.42-8.16,3.36-11.1,6.78-11.1s5.52,2.46,5.52,6.48c0,4.8-2.88,8.64-7.44,8.04-3.54-.48-4.92,1.68-4.92,5.16v7.5c0,3.84-3,6.06-6.24,6.06-3.06,0-5.88-2.04-5.88-6Z"/>
  <path class="cls-1" d="m63.47,25.71c0-9.78,5.58-16.68,16.32-16.68s16.32,6.9,16.32,16.68-5.64,16.8-16.32,16.8-16.32-7.02-16.32-16.8Zm21.48,0c0-3.42-1.68-5.1-5.16-5.1s-5.28,1.68-5.28,5.1,1.74,5.16,5.22,5.16,5.22-1.68,5.22-5.16Z"/>
  <path class="cls-1" d="m100.07,48.09v-25.8l-.6-6.12c-.6-4.86,2.46-6.84,5.28-6.96,2.52,0,5.76.96,6.12,5.52l.42,5.4h.54c.66-8.58,5.34-11.1,10.62-11.1,6.6.06,11.04,5.04,11.04,16.56,0,12.24-5.76,16.86-11.88,16.86-4.44,0-8.4-2.46-9.3-10.68h-.78c.66,5.1.66,9.18.66,10.98v5.34c0,3.96-2.94,6-6,6-2.76,0-6.12-1.98-6.12-6Zm21.66-22.38c0-3.48-2.04-4.56-4.68-4.56-3.36,0-4.92,1.5-4.92,4.56,0,2.88,1.68,4.5,4.98,4.5,2.64,0,4.62-1.14,4.62-4.5Z"/>
  <path class="cls-1" d="m168.41,33.45c0,6.3-7.68,9.06-14.46,9.06-11.04,0-17.22-6.42-17.22-16.68,0-11.22,7.2-16.74,16.74-16.74s15.48,5.28,15.48,13.26c0,3.24-1.74,4.92-5.28,4.92h-15.06c.3,2.52,2.52,4.02,5.88,4.02,2.82,0,4.38-.96,5.94-1.8,1.02-.54,2.04-1.02,3.48-1.02,2.7,0,4.5,2.16,4.5,4.98Zm-19.8-10.5l9-.18c-.12-2.04-1.74-3.6-4.38-3.6-2.22,0-4.2,1.14-4.62,3.78Z"/>
  <path class="cls-1" d="m203.69,33.45c0,6.3-7.68,9.06-14.46,9.06-11.04,0-17.22-6.42-17.22-16.68,0-11.22,7.2-16.74,16.74-16.74s15.48,5.28,15.48,13.26c0,3.24-1.74,4.92-5.28,4.92h-15.06c.3,2.52,2.52,4.02,5.88,4.02,2.82,0,4.38-.96,5.94-1.8,1.02-.54,2.04-1.02,3.48-1.02,2.7,0,4.5,2.16,4.5,4.98Zm-19.8-10.5l9-.18c-.12-2.04-1.74-3.6-4.38-3.6-2.22,0-4.2,1.14-4.62,3.78Z"/>
  <path class="cls-1" d="m212.63,41.79c-3.42,0-5.82-2.52-5.82-5.7,0-1.62.48-3.48,2.28-5.04l10.56-9.36h-7.32c-3.24,0-5.82-2.64-5.82-5.94s2.52-6,5.88-6h15.36c3.42,0,6.18,2.28,6.18,5.64,0,1.74-.66,4.02-2.58,5.58l-10.26,9.18h8.22c3.24,0,5.76,2.58,5.76,5.76,0,3.36-2.46,5.88-5.76,5.88h-16.68Z"/>
  <path class="cls-1" d="m244.14,38.14c-.38,6.43-4.13,12.15-9.02,16.15-5.61,4.59-12.85,6.79-19.87,8.03-1.33.23-2.08,1.86-1.75,3.08.39,1.4,1.74,1.98,3.08,1.75,8.07-1.42,16.03-4.24,22.37-9.57,5.78-4.86,9.74-11.85,10.19-19.44.19-3.21-4.81-3.2-5,0h0Z"/>
  <path class="cls-3" d="m210.82,57.97l7.1,14.04s-5.5,11.69-23.75,5.7c-7.48-15.15-11.29-22.32-11.29-22.32,0,0,7.22,7.3,27.94,2.57Z"/>
  <path class="cls-3" d="m191.22,71.32s6.9,3.56,11.83,2.65"/>
  <path class="cls-3" d="m186.62,62.79s8.65,4.26,12.75,3.2"/>
  <line class="cls-3" x1="205.72" y1="59.25" x2="214.2" y2="76.03"/>
</svg>